<?xml version="1.0" encoding="utf-8"?>
<!-- Generator: Adobe Illustrator 18.0.0, SVG Export Plug-In . SVG Version: 6.00 Build 0)  -->
<!DOCTYPE svg PUBLIC "-//W3C//DTD SVG 1.1//EN" "http://www.w3.org/Graphics/SVG/1.1/DTD/svg11.dtd">
<svg version="1.1" id="Layer_1" xmlns="http://www.w3.org/2000/svg" xmlns:xlink="http://www.w3.org/1999/xlink" x="0px" y="0px"
	 viewBox="-44 46 700 700" enable-background="new -44 46 700 700" xml:space="preserve">
<g>
	<g>
		<g>
			<path fill="#0C9BD7" d="M256.6,162.7c19-19.8,45.4-32.1,74.6-32.1c38.9,0,72.7,21.7,90.8,53.9c15.7-7,33-10.9,51.3-10.9
				c70.1,0,126.9,57.3,126.9,128s-56.8,128-126.9,128c-8.6,0-16.9-0.8-25-2.5c-15.9,28.4-46.2,47.5-81,47.5
				c-14.6,0-28.3-3.4-40.6-9.3c-16.1,37.9-53.6,64.4-97.4,64.4c-45.6,0-84.5-28.8-99.3-69.3c-6.5,1.4-13.3,2.1-20.2,2.1
				c-54.2,0-98.2-44.4-98.2-99.2c0-36.7,19.8-68.8,49.1-85.9c-6.1-13.9-9.4-29.2-9.4-45.4c0-63.1,51.2-114.2,114.3-114.2
				C202.8,117.9,235.8,135.5,256.6,162.7z"/>
		</g>
		<g>
			<g>
				<path fill="#FFFFFF" d="M97,331.5c-0.4,0.9,0.1,1.2,0.2,1.4c1.2,0.8,2.2,1.4,3.4,2c6,3.1,11.6,4.1,17.6,4.1
					c12,0,19.6-6.4,19.6-16.8V322c0-9.5-8.5-13-16.5-15.5l-1-0.3c-6-1.9-11.1-3.7-11.1-7.5v-0.2c0-3.4,3-5.9,7.6-5.9
					c5.2,0,11.4,1.7,15.3,4c0,0,1.2,0.7,1.6-0.4c0.2-0.6,2.2-6,2.4-6.6c0.2-0.6-0.2-1.2-0.6-1.4c-4.5-2.7-10.8-4.6-17.3-4.6H117
					c-11,0-18.8,6.7-18.8,16.2v0.2c0,10.1,8.5,13.3,16.5,15.6l1.3,0.4c5.8,1.8,10.8,3.4,10.8,7.4v0.2c0,3.8-3.2,6.5-8.5,6.5
					c-2,0-8.5,0-15.5-4.5c-0.8-0.5-1.4-0.8-2-1.3c-0.3-0.2-1.3-0.6-1.6,0.5L97,331.5z"/>
				<path fill="#FFFFFF" d="M273.7,331.5c-0.4,0.9,0.1,1.2,0.2,1.4c1.2,0.8,2.2,1.4,3.4,2c6,3.1,11.6,4.1,17.6,4.1
					c12.1,0,19.6-6.4,19.6-16.8V322c0-9.5-8.5-13-16.5-15.5l-1-0.3c-6-1.9-11.1-3.7-11.1-7.5v-0.2c0-3.4,3-5.9,7.8-5.9
					c5.2,0,11.4,1.7,15.3,4c0,0,1.2,0.7,1.6-0.4c0.2-0.6,2.2-6,2.4-6.6c0.2-0.6-0.2-1.2-0.6-1.4c-4.5-2.7-10.8-4.6-17.3-4.6h-1.2
					c-11,0-18.8,6.7-18.8,16.2v0.2c0,10.1,8.5,13.3,16.5,15.6l1.3,0.4c5.8,1.8,10.8,3.4,10.8,7.4v0.2c0,3.8-3.2,6.5-8.5,6.5
					c-2,0-8.5,0-15.5-4.5c-0.8-0.5-1.4-0.8-2-1.3c-0.2-0.1-1.3-0.5-1.6,0.5L273.7,331.5z"/>
				<path fill="#FFFFFF" d="M404.5,300.4c-0.9-3.4-2.5-6.3-4.6-8.8c-2.1-2.5-4.6-4.4-7.8-5.9c-3-1.5-6.7-2.2-10.8-2.2
					s-7.8,0.7-10.8,2.2s-5.7,3.5-7.8,5.9c-2.1,2.5-3.6,5.4-4.6,8.8c-0.9,3.4-1.5,7-1.5,10.8c0,3.9,0.5,7.5,1.5,10.8
					c0.9,3.4,2.5,6.3,4.6,8.8c2.1,2.5,4.7,4.4,7.8,5.9c3,1.4,6.7,2.1,10.8,2.1s7.8-0.7,10.8-2.1s5.7-3.4,7.8-5.9
					c2.1-2.5,3.6-5.4,4.6-8.8c0.9-3.4,1.5-7,1.5-10.8C406,307.4,405.4,303.7,404.5,300.4 M394.3,311.2c0,5.9-1,10.5-3.2,13.7
					c-2.1,3.2-5.3,4.8-9.8,4.8s-7.6-1.6-9.7-4.8c-2.1-3.2-3.1-7.9-3.1-13.7c0-5.9,1-10.4,3.1-13.6c2.1-3.1,5.3-4.7,9.7-4.7
					c4.5,0,7.6,1.6,9.8,4.7C393.3,300.8,394.3,305.4,394.3,311.2"/>
				<path fill="#FFFFFF" d="M487.3,328.2c-0.3-0.9-1.3-0.6-1.3-0.6c-1.5,0.5-3,1-4.7,1.4c-1.7,0.3-3.6,0.4-5.6,0.4
					c-4.9,0-8.8-1.5-11.5-4.3c-2.7-2.8-4.3-7.5-4.3-13.8c0-5.7,1.4-10,3.9-13.3c2.4-3.2,6.2-4.9,11.2-4.9c4.2,0,7.3,0.5,10.7,1.5
					c0,0,0.8,0.3,1.2-0.7c0.9-2.4,1.6-4.2,2.5-6.9c0.3-0.7-0.4-1.2-0.6-1.2c-1.4-0.5-4.4-1.4-6.7-1.7c-2.2-0.3-4.7-0.5-7.5-0.5
					c-4.2,0-8,0.7-11.2,2.2s-6,3.5-8.1,5.9c-2.1,2.4-3.8,5.4-4.9,8.8c-1.2,3.4-1.7,7-1.7,10.9c0,8.4,2.3,15.1,6.7,20.1
					c4.5,4.9,11.2,7.4,19.9,7.4c5.1,0,10.5-1,14.3-2.5c0,0,0.7-0.3,0.4-1.2L487.3,328.2z"/>
				<path fill="#FFFFFF" d="M538.8,298.5c-0.8-3.2-2.9-6.5-4.4-8c-2.2-2.3-4.3-4-6.5-4.9c-2.7-1.2-6.1-2-9.7-2
					c-4.3,0-8.2,0.7-11.2,2.2c-3.1,1.5-5.8,3.5-7.9,6c-2.1,2.5-3.7,5.4-4.6,8.9c-0.9,3.4-1.5,7-1.5,10.9c0,4,0.5,7.5,1.6,10.9
					c1,3.4,2.7,6.3,4.9,8.7c2.2,2.4,5.1,4.3,8.6,5.7c3.5,1.4,7.5,2,12.4,2c9.8,0,15.1-2.2,17.2-3.5c0.4-0.2,0.7-0.5,0.3-1.7
					l-2.2-6.3c-0.3-0.9-1.3-0.6-1.3-0.6c-2.4,0.9-5.9,2.5-14,2.5c-5.2,0-9.2-1.6-11.6-4c-2.5-2.5-3.8-6.2-4-11.3h34.1
					c0,0,0.9,0,0.9-0.9C539.9,312.9,541,306.1,538.8,298.5z M504.9,305.6c0.5-3.2,1.4-6,2.7-8.1c2.1-3.1,5.2-4.9,9.7-4.9
					c4.5,0,7.4,1.8,9.5,4.9c1.4,2.1,2,4.9,2.3,8.1H504.9z"/>
				<path fill="#FFFFFF" d="M265.6,298.5c-0.8-3.2-2.9-6.5-4.4-8c-2.2-2.3-4.3-4-6.5-4.9c-2.8-1.2-6.1-2-9.7-2
					c-4.3,0-8.2,0.7-11.2,2.2c-3.1,1.5-5.8,3.5-7.9,6c-2.1,2.5-3.7,5.4-4.6,8.9c-0.9,3.4-1.5,7-1.5,10.9c0,4,0.5,7.5,1.6,10.9
					c1,3.4,2.7,6.3,4.9,8.7c2.2,2.4,5.1,4.3,8.6,5.7c3.5,1.4,7.5,2,12.4,2c9.8,0,15.1-2.2,17.2-3.5c0.4-0.2,0.7-0.5,0.3-1.7
					l-2.2-6.3c-0.3-0.9-1.3-0.6-1.3-0.6c-2.4,0.9-5.9,2.5-14,2.5c-5.2,0-9.2-1.6-11.6-4c-2.5-2.5-3.8-6.2-4-11.3h34.1
					c0,0,0.9,0,0.9-0.9C266.6,312.9,267.8,306.1,265.6,298.5z M231.6,305.6c0.5-3.2,1.4-6,2.7-8.1c2.1-3.1,5.2-4.9,9.7-4.9
					c4.5,0,7.4,1.8,9.5,4.9c1.4,2.1,2,4.9,2.3,8.1H231.6z"/>
				<path fill="#FFFFFF" d="M171.5,303.9c-1.4-0.1-3.1-0.1-5.3-0.1c-2.9,0-5.8,0.3-8.4,1s-5,1.8-7.1,3.4c-2.1,1.5-3.8,3.4-4.9,5.7
					c-1.3,2.3-1.8,4.9-1.8,7.9c0,3,0.5,5.7,1.6,7.8c1,2.1,2.5,4,4.4,5.3c1.9,1.4,4.2,2.4,6.9,3c2.7,0.6,5.8,0.9,9,0.9
					c3.5,0,7-0.3,10.4-0.8c3.4-0.5,7.4-1.4,8.6-1.7c1.2-0.3,2.4-0.6,2.4-0.6c0.8-0.2,0.7-1.2,0.7-1.2v-31.2c0-6.8-1.8-11.9-5.4-15.1
					c-3.6-3.1-8.8-4.7-15.7-4.7c-2.5,0-6.7,0.3-9.1,0.8c0,0-7.4,1.5-10.5,3.9c0,0-0.6,0.4-0.3,1.4l2.4,6.5c0.3,0.8,1.2,0.5,1.2,0.5
					s0.3-0.1,0.5-0.3c6.6-3.6,14.9-3.5,14.9-3.5c3.7,0,6.5,0.7,8.4,2.2s2.8,3.6,2.8,8.2v1.5C174.2,304.3,171.5,303.9,171.5,303.9z
					 M157.8,327.9c-1.4-1-1.5-1.4-2-2c-0.7-1-1-2.5-1-4.4c0-3,0.9-5.1,3-6.6c0,0,2.9-2.5,9.8-2.5c4.9,0.1,9.2,0.7,9.2,0.7v15.5l0,0
					c0,0-4.3,0.9-9.2,1.3C161,330.4,157.8,327.9,157.8,327.9z"/>
				<path fill="#FFFFFF" d="M446.6,286.4c0.3-0.7-0.3-1.2-0.5-1.3c-0.6-0.2-3.5-0.8-5.8-0.9c-4.3-0.3-6.7,0.4-8.8,1.5
					c-2.1,0.9-4.5,2.5-5.8,4.3v-4.2c0-0.5-0.4-1-0.9-1H416c-0.5,0-0.9,0.4-0.9,1v50.9c0,0.5,0.4,1,1,1h9c0.5,0,1-0.4,1-1v-25.5
					c0-3.5,0.4-6.8,1.2-9c0.7-2.1,1.8-3.8,3-5s2.6-2.1,4.2-2.5c1.6-0.5,3.4-0.6,4.6-0.6c1.8,0,3.8,0.4,3.8,0.4
					c0.6,0.1,1-0.3,1.3-0.9C444.6,292,446.3,287.3,446.6,286.4z"/>
				<path fill="#FFFFFF" d="M362.5,262.9c-1-0.3-2.1-0.5-3.4-0.8c-1.4-0.2-2.8-0.3-4.6-0.3c-6.2,0-11,1.8-14.5,5.1
					c-3.4,3.5-5.7,8.6-6.8,15.5l-0.4,2.3h-7.8c0,0-0.9,0-1.2,0.9l-1.3,7.1c-0.1,0.7,0.2,1.2,1.2,1.2h7.5l-7.6,42.8
					c-0.6,3.5-1.3,6.3-2.1,8.4c-0.7,2.1-1.5,3.7-2.4,4.8c-0.8,1.2-1.7,1.9-3.1,2.4c-1.2,0.4-2.5,0.5-4,0.5c-0.8,0-1.9-0.1-2.7-0.3
					c-0.8-0.1-1.3-0.3-1.9-0.6c0,0-0.9-0.3-1.3,0.5c-0.3,0.7-2.3,6.3-2.5,6.9c-0.2,0.7,0.1,1.3,0.5,1.4c1,0.3,1.8,0.6,3.1,0.9
					c1.9,0.4,3.5,0.5,5,0.5c3.1,0,6-0.4,8.4-1.3c2.4-0.8,4.5-2.4,6.3-4.4c2-2.2,3.2-4.5,4.4-7.6c1.2-3.1,2.2-7,3-11.4l7.6-43.5h11.2
					c0,0,0.9,0,1.2-0.9l1.3-7.1c0.1-0.7-0.2-1.2-1.2-1.2h-10.9c0.1-0.2,0.5-4.1,1.8-7.6c0.5-1.6,1.6-2.8,2.4-3.7
					c0.8-0.8,1.8-1.5,2.8-1.8c1-0.3,2.3-0.5,3.7-0.5c1,0,2,0.1,2.8,0.3c1,0.2,1.5,0.3,1.8,0.4c1.2,0.3,1.3,0,1.5-0.5l2.6-7.1
					C363.4,263.3,362.8,262.9,362.5,262.9z"/>
				<path fill="#FFFFFF" d="M210.1,336.6c0,0.5-0.4,1-0.9,1h-9c-0.5,0-0.9-0.4-0.9-1v-72.8c0-0.5,0.4-1,0.9-1h9c0.5,0,0.9,0.4,0.9,1
					V336.6L210.1,336.6z"/>
			</g>
		</g>
	</g>
	<g>
		<path fill="#72808A" d="M40.7,618.9H27.2v-8.8h13.5v-13.9c0-3.8,0.3-7.2,1-10.4c0.7-3.1,1.9-5.9,3.7-8.2c1.7-2.3,4-4.1,6.8-5.3
			c2.8-1.3,6.3-1.9,10.5-1.9c1.4,0,2.7,0.1,4.3,0.4c1.5,0.3,2.7,0.6,3.7,1.2l-1.5,9.3c-2.5-0.8-4.8-1.4-7-1.4
			c-2.6,0-4.7,0.4-6.3,1.4c-1.5,0.9-2.6,2.2-3.4,3.9c-0.7,1.7-1.2,3.6-1.4,5.9c-0.1,2.3-0.2,4.8-0.2,7.4v11.6H66v8.8h-15v53.3H40.7
			C40.7,672.3,40.7,618.9,40.7,618.9z"/>
		<path fill="#72808A" d="M70.3,641.2c0-4.8,0.8-9.3,2.5-13.3c1.7-4,4-7.4,6.9-10.3c2.9-2.8,6.4-5.1,10.5-6.7
			c4.1-1.6,8.5-2.4,13.3-2.4s9.2,0.8,13.3,2.4c4.1,1.6,7.5,3.9,10.5,6.7c2.9,2.8,5.2,6.3,6.9,10.3c1.7,4,2.5,8.4,2.5,13.3
			c0,4.8-0.8,9.3-2.5,13.3c-1.7,4-4,7.4-6.9,10.3c-2.9,2.8-6.4,5.1-10.5,6.7c-4.1,1.6-8.5,2.4-13.3,2.4s-9.2-0.8-13.3-2.4
			c-4.1-1.6-7.5-3.9-10.5-6.7c-2.9-2.8-5.2-6.3-6.9-10.3C71.2,650.5,70.3,646.1,70.3,641.2z M81.5,641.2c0,3.2,0.5,6.3,1.6,9.1
			c1,2.8,2.5,5.2,4.4,7.3c2,2.1,4.3,3.7,7,4.9c2.7,1.2,5.8,1.8,9.1,1.8s6.4-0.6,9.1-1.8c2.7-1.2,5-2.8,7-4.9c2-2.1,3.5-4.5,4.4-7.3
			c1-2.8,1.6-5.9,1.6-9.1c0-3.2-0.5-6.3-1.6-9.1s-2.5-5.2-4.4-7.3c-2-2.1-4.3-3.7-7-4.9c-2.7-1.2-5.8-1.8-9.1-1.8s-6.4,0.6-9.1,1.8
			c-2.7,1.2-5,2.8-7,4.9c-2,2.1-3.5,4.5-4.4,7.3C82,635,81.5,638,81.5,641.2z"/>
		<path fill="#72808A" d="M149.5,624.9c0-2.8-0.1-5.4-0.3-8c-0.2-2.5-0.3-4.7-0.3-6.8h9.8c0,1.7,0,3.4,0.1,5
			c0.1,1.7,0.1,3.5,0.1,5.1h0.3c0.7-1.5,1.7-2.9,3-4.4c1.3-1.4,2.8-2.7,4.6-3.8c1.8-1.2,3.8-2,6-2.6c2.2-0.6,4.6-1,7.1-1
			c0.7,0,1.4,0,2.1,0.1c0.7,0.1,1.4,0.3,2.1,0.5l-0.6,10.5c-1.8-0.5-3.7-0.8-5.6-0.8c-6.4,0-11,2.1-13.8,6.2s-4.3,9.7-4.3,17v30.3
			h-10.4L149.5,624.9L149.5,624.9z"/>
		<path fill="#72808A" d="M234.6,625.7c-2.2-2.6-4.6-4.6-7.1-5.8c-2.6-1.2-5.4-1.8-8.5-1.8c-3.5,0-6.5,0.6-9.1,1.8
			c-2.6,1.2-4.8,2.8-6.6,5c-1.7,2.1-3,4.6-3.9,7.3c-0.8,2.8-1.4,5.8-1.4,9c0,3.2,0.5,6.2,1.6,9c1,2.8,2.4,5.2,4.3,7.3
			c1.8,2.1,4,3.8,6.6,5c2.5,1.2,5.4,1.8,8.6,1.8c6.8,0,12.1-2.5,15.8-7.6l7.6,7.3c-3,3.5-6.6,6-10.6,7.5c-4.1,1.6-8.4,2.4-12.9,2.4
			c-4.8,0-9.1-0.8-13.1-2.4c-4-1.6-7.3-3.9-10.2-6.8s-4.9-6.4-6.5-10.4c-1.6-4-2.3-8.4-2.3-13.1s0.7-9,2.3-13
			c1.6-4,3.8-7.4,6.6-10.4c2.8-2.9,6.2-5.2,10.2-6.8c4-1.7,8.3-2.4,13.1-2.4c4.6,0,9,0.8,13.1,2.4c4.1,1.6,7.8,4.1,10.8,7.4
			L234.6,625.7z"/>
		<path fill="#72808A" d="M306.6,661c-3.7,4.8-7.8,8.2-12.3,10.1c-4.4,1.9-9.5,2.8-15.4,2.8c-4.8,0-9.2-0.8-13.1-2.6
			c-3.9-1.7-7.2-4.1-9.8-7c-2.7-2.9-4.8-6.4-6.3-10.4c-1.5-4-2.2-8.3-2.2-12.8c0-4.8,0.8-9.2,2.4-13.2c1.6-4,3.8-7.4,6.6-10.4
			c2.8-2.8,6.2-5.1,10.1-6.7c3.9-1.6,8.2-2.4,12.8-2.4c4.3,0,8.3,0.7,11.9,2.2c3.7,1.5,6.7,3.6,9.3,6.4c2.6,2.8,4.6,6.2,6.1,10.3
			c1.4,4,2.1,8.6,2.1,13.7v3.4h-50.2c0.2,2.6,0.8,5.2,1.9,7.6c1.2,2.4,2.5,4.6,4.3,6.4c1.8,1.8,3.9,3.2,6.3,4.3c2.4,1,5,1.6,7.9,1.6
			c4.5,0,8.3-0.8,11.4-2.4c3.1-1.6,5.9-4,8.4-7L306.6,661z M297.7,635.7c-0.2-5.3-1.9-9.5-5.1-12.8c-3.2-3.1-7.8-4.8-13.5-4.8
			s-10.4,1.6-13.9,4.8c-3.6,3.1-5.7,7.4-6.4,12.8H297.7z"/>
		<path fill="#72808A" d="M330.2,657.2c2.2,0,4.1,0.7,5.7,2.3c1.6,1.6,2.3,3.5,2.3,5.7c0,2.2-0.8,4.1-2.4,5.7
			c-1.7,1.6-3.5,2.3-5.6,2.3c-2,0-3.9-0.7-5.6-2.3c-1.7-1.6-2.4-3.5-2.4-5.7s0.7-4.1,2.3-5.7C326.1,657.9,328,657.2,330.2,657.2z"/>
		<path fill="#72808A" d="M399.4,625.7c-2.2-2.6-4.6-4.6-7.1-5.8c-2.6-1.2-5.4-1.8-8.5-1.8c-3.5,0-6.5,0.6-9.1,1.8
			c-2.6,1.2-4.8,2.8-6.6,5c-1.7,2.1-3,4.6-3.9,7.3c-0.8,2.8-1.4,5.8-1.4,9c0,3.2,0.5,6.2,1.6,9c1,2.8,2.4,5.2,4.3,7.3
			c1.8,2.1,4,3.8,6.6,5c2.5,1.2,5.4,1.8,8.6,1.8c6.8,0,12.1-2.5,15.8-7.6l7.6,7.3c-3,3.5-6.6,6-10.6,7.5c-4.1,1.6-8.4,2.4-12.9,2.4
			c-4.8,0-9.1-0.8-13.1-2.4c-4-1.6-7.3-3.9-10.2-6.8s-4.9-6.4-6.5-10.4c-1.6-4-2.3-8.4-2.3-13.1s0.7-9,2.3-13
			c1.6-4,3.8-7.4,6.6-10.4c2.8-2.9,6.2-5.2,10.2-6.8c4-1.7,8.3-2.4,13.1-2.4c4.6,0,9,0.8,13.1,2.4c4.1,1.6,7.8,4.1,10.8,7.4
			L399.4,625.7z"/>
		<path fill="#72808A" d="M412.2,641.2c0-4.8,0.8-9.3,2.5-13.3c1.7-4,4-7.4,6.9-10.3c2.9-2.8,6.4-5.1,10.5-6.7
			c4.1-1.6,8.5-2.4,13.3-2.4s9.2,0.8,13.3,2.4c4.1,1.6,7.5,3.9,10.5,6.7c2.9,2.8,5.2,6.3,6.9,10.3c1.7,4,2.5,8.4,2.5,13.3
			c0,4.8-0.8,9.3-2.5,13.3c-1.7,4-4,7.4-6.9,10.3c-2.9,2.8-6.4,5.1-10.5,6.7c-4.1,1.6-8.5,2.4-13.3,2.4s-9.2-0.8-13.3-2.4
			c-4.1-1.6-7.5-3.9-10.5-6.7c-2.9-2.8-5.2-6.3-6.9-10.3C413.1,650.5,412.2,646.1,412.2,641.2z M423.5,641.2c0,3.2,0.5,6.3,1.6,9.1
			c1,2.8,2.5,5.2,4.4,7.3c2,2.1,4.3,3.7,7,4.9c2.7,1.2,5.8,1.8,9.1,1.8s6.4-0.6,9.1-1.8c2.7-1.2,5-2.8,7-4.9c2-2.1,3.5-4.5,4.4-7.3
			c1-2.8,1.6-5.9,1.6-9.1c0-3.2-0.5-6.3-1.6-9.1c-1-2.8-2.5-5.2-4.4-7.3c-2-2.1-4.3-3.7-7-4.9c-2.7-1.2-5.8-1.8-9.1-1.8
			s-6.4,0.6-9.1,1.8c-2.7,1.2-5,2.8-7,4.9c-2,2.1-3.5,4.5-4.4,7.3C423.9,635,423.5,638,423.5,641.2z"/>
		<path fill="#72808A" d="M491.4,624.9c0-2.8-0.1-5.4-0.3-8c-0.2-2.5-0.3-4.7-0.3-6.8h9.8c0,1.7,0,3.4,0.1,5
			c0.1,1.7,0.1,3.5,0.1,5.1h0.3c0.7-1.5,1.7-2.9,3-4.4c1.3-1.4,2.8-2.7,4.6-3.8c1.8-1.2,3.8-2,6-2.6c2.2-0.6,4.6-1,7.1-1
			c3.4,0,6.2,0.4,8.4,1.3c2.3,0.8,4.1,1.9,5.7,3c1.5,1.2,2.7,2.5,3.6,3.9c0.8,1.4,1.6,2.6,2.1,3.7c2.3-3.7,4.9-6.6,8-8.7
			c3-2.1,6.9-3.1,11.6-3.1c4.4,0,8.2,0.6,11.1,1.8c3,1.2,5.4,2.9,7.3,5.1c1.9,2.3,3.1,5,4,8.3c0.8,3.2,1.2,6.8,1.2,10.8v37.7h-10.4
			V635c0-2.1-0.2-4.2-0.6-6.3c-0.4-2-1.3-3.9-2.4-5.4c-1.2-1.6-2.7-2.8-4.6-3.9c-2-0.9-4.4-1.5-7.4-1.5c-2.2,0-4.3,0.4-6.3,1.4
			c-2,0.8-3.7,2.1-5.1,3.7c-1.5,1.6-2.6,3.6-3.5,5.8c-0.8,2.3-1.3,4.7-1.3,7.5V672h-10.4v-35.2c0-6.9-0.9-11.8-2.8-14.7
			s-4.9-4.3-9.1-4.3c-3.4,0-6.3,0.5-8.7,1.7s-4.4,2.8-6,4.9s-2.7,4.6-3.5,7.5c-0.7,2.9-1.2,6.2-1.2,9.6v30.3h-10.4v-47H491.4z"/>
	</g>
</g>
<g display="none">
	<path display="inline" fill="#72808A" d="M938,685c1.3,1.7,2.8,3.1,4.5,4c1.6,1,3.7,1.5,6.1,1.5c1,0,2.1-0.1,3.2-0.3
		c1-0.3,2.1-0.6,3-1.1c0.9-0.5,1.6-1.2,2.1-2c0.5-0.8,0.8-1.7,0.8-2.9c0-1.1-0.3-2-0.8-2.7s-1.1-1.3-2-1.8c-0.8-0.5-1.7-0.9-2.8-1.2
		c-1-0.3-2.2-0.5-3.2-0.8c-1.9-0.4-3.8-0.9-5.6-1.4c-1.7-0.5-3.3-1.2-4.6-2.1c-1.3-0.9-2.4-1.9-3.1-3.3c-0.8-1.3-1.2-3.1-1.2-5.2
		c0-2,0.4-3.8,1.3-5.2c0.9-1.5,2.1-2.8,3.5-3.8c1.5-1,3.1-1.7,4.9-2.3c1.8-0.5,3.7-0.8,5.7-0.8c3,0,5.7,0.6,8.1,1.7
		c2.5,1.1,4.5,3.1,5.9,5.8l-5.8,3.8c-0.9-1.5-2-2.6-3.5-3.6c-1.4-0.9-3.1-1.4-5.2-1.4c-1,0-1.9,0.1-2.9,0.3c-1,0.3-1.8,0.6-2.6,1
		c-0.8,0.4-1.4,1-1.9,1.8c-0.5,0.7-0.8,1.6-0.8,2.5c0,0.9,0.3,1.7,0.9,2.3c0.5,0.6,1.3,1.1,2.3,1.7c1,0.4,2.1,0.9,3.3,1.2
		c1.2,0.3,2.5,0.6,3.9,0.9c1.8,0.3,3.6,0.8,5.2,1.4c1.7,0.5,3.1,1.3,4.3,2.3c1.2,1,2.2,2.1,2.9,3.5c0.7,1.4,1,3.1,1,5.2
		c0,2.4-0.4,4.4-1.4,6c-1,1.7-2.2,3-3.8,4c-1.6,1-3.3,1.7-5.2,2.3c-2,0.4-4,0.7-6,0.7c-3.5,0-6.6-0.5-9.1-1.7c-2.5-1-4.9-3.1-6.9-6
		L938,685z"/>
	<path display="inline" fill="#72808A" d="M970.1,675.2c0-3.2,0.5-6.2,1.7-8.8s2.6-4.9,4.5-6.8c1.9-1.9,4.3-3.4,7-4.5
		s5.7-1.6,8.8-1.6s6.1,0.5,8.8,1.6s5,2.5,7,4.5c1.9,1.9,3.5,4.2,4.5,6.8c1.1,2.6,1.7,5.6,1.7,8.8c0,3.2-0.5,6.2-1.7,8.8
		s-2.6,4.9-4.5,6.8c-1.9,1.9-4.3,3.4-7,4.5c-2.7,1-5.7,1.6-8.8,1.6s-6.1-0.5-8.8-1.6s-5-2.5-7-4.5c-1.9-1.9-3.5-4.2-4.5-6.8
		C970.7,681.4,970.1,678.4,970.1,675.2z M977.5,675.2c0,2.2,0.3,4.2,1,6c0.7,1.8,1.7,3.5,3,4.8c1.3,1.4,2.8,2.4,4.6,3.2
		c1.7,0.8,3.8,1.2,6,1.2c2.3,0,4.3-0.4,6-1.2c1.7-0.8,3.3-1.9,4.6-3.2c1.3-1.4,2.3-3,3-4.8s1-3.8,1-6s-0.3-4.2-1-6
		c-0.7-1.8-1.7-3.5-3-4.8c-1.3-1.4-2.8-2.4-4.6-3.2c-1.8-0.8-3.8-1.2-6-1.2c-2.3,0-4.3,0.4-6,1.2c-1.8,0.8-3.3,1.9-4.6,3.2
		c-1.3,1.4-2.3,3-3,4.8C977.9,671,977.5,673,977.5,675.2z"/>
	<path display="inline" fill="#72808A" d="M1052,664.9c-1.5-1.7-3.1-3.1-4.7-3.8c-1.7-0.8-3.6-1.2-5.7-1.2c-2.3,0-4.3,0.4-6.1,1.2
		c-1.7,0.8-3.2,1.9-4.4,3.3c-1.1,1.4-2,3.1-2.6,4.9s-0.9,3.8-0.9,5.9c0,2.1,0.3,4.1,1,5.9c0.7,1.8,1.6,3.5,2.8,4.9
		c1.2,1.4,2.6,2.5,4.4,3.3c1.7,0.8,3.6,1.2,5.8,1.2c4.5,0,8-1.7,10.5-5.1l5.1,4.8c-2,2.3-4.4,3.9-7.1,5c-2.7,1-5.6,1.6-8.6,1.6
		c-3.1,0-6.1-0.5-8.7-1.6s-4.9-2.5-6.7-4.5c-1.8-1.9-3.3-4.2-4.3-6.9c-1-2.6-1.6-5.6-1.6-8.7s0.5-6,1.6-8.7c1-2.6,2.4-4.9,4.4-6.9
		c1.9-1.9,4.1-3.4,6.7-4.5c2.6-1,5.5-1.7,8.7-1.7c3.1,0,5.9,0.5,8.7,1.6c2.7,1,5.2,2.7,7.2,4.9L1052,664.9z"/>
	<path display="inline" fill="#72808A" d="M1062,638.5c0-1.3,0.5-2.5,1.5-3.5c1-1,2.2-1.5,3.6-1.5c1.4,0,2.6,0.5,3.6,1.5
		c1,1,1.5,2.2,1.5,3.5c0,1.5-0.4,2.7-1.4,3.6c-1,1-2.2,1.4-3.6,1.4c-1.5,0-2.7-0.4-3.6-1.4C1062.4,641.1,1062,639.9,1062,638.5z
		 M1063.5,654.5h6.9v41.3h-6.9V654.5z"/>
	<path display="inline" fill="#72808A" d="M1081.3,659.9c2.1-2.2,4.6-3.8,7.5-4.8c2.9-1,5.9-1.6,8.8-1.6c6.1,0,10.5,1.4,13.2,4.3
		c2.7,2.9,4,7.3,4,13.1v17.7c0,1.1,0.1,2.4,0.2,3.7c0.1,1.2,0.3,2.4,0.4,3.5h-6.6c-0.3-1-0.3-2-0.4-3.1c0-1.1,0-2.2,0-3.1h-0.2
		c-1.3,2.1-3.1,3.8-5.4,5.2c-2.3,1.3-5,2-8.1,2c-2.1,0-4.1-0.3-5.9-0.8c-1.8-0.5-3.5-1.3-4.8-2.4c-1.4-1-2.4-2.3-3.3-3.8
		c-0.8-1.5-1.2-3.3-1.2-5.2c0-3.4,0.9-6.1,2.6-8c1.7-1.9,3.9-3.4,6.6-4.3c2.6-1,5.4-1.5,8.5-1.7c3.1-0.3,5.8-0.3,8.3-0.3h2.6v-1.2
		c0-3-0.9-5.2-2.7-6.8c-1.8-1.5-4.3-2.3-7.5-2.3c-2.3,0-4.5,0.3-6.6,1.1c-2.2,0.7-4,1.8-5.7,3.4L1081.3,659.9z M1101.2,676
		c-4.4,0-7.9,0.6-10.5,1.8c-2.6,1.2-3.8,3.2-3.8,6.1c0,2.6,0.9,4.5,2.6,5.5c1.7,1,3.9,1.7,6.5,1.7c2,0,3.8-0.3,5.2-1
		c1.5-0.7,2.7-1.6,3.8-2.7c1-1.1,1.7-2.4,2.3-3.9c0.5-1.5,0.8-3.1,0.9-4.8V676H1101.2z"/>
	<path display="inline" fill="#72808A" d="M1126,629.2h6.9v66.6h-6.9V629.2z"/>
	<path display="inline" fill="#72808A" d="M1150.1,685.8c1.5,0,2.7,0.5,3.8,1.6c1,1,1.6,2.3,1.6,3.8c0,1.5-0.5,2.7-1.7,3.8
		c-1,1-2.3,1.6-3.7,1.6c-1.3,0-2.5-0.5-3.7-1.6c-1-1-1.7-2.3-1.7-3.8c0-1.5,0.5-2.7,1.6-3.8C1147.4,686.3,1148.6,685.8,1150.1,685.8
		z"/>
	<path display="inline" fill="#72808A" d="M1196,664.9c-1.5-1.7-3.1-3.1-4.7-3.8c-1.7-0.8-3.6-1.2-5.7-1.2c-2.3,0-4.3,0.4-6.1,1.2
		c-1.7,0.8-3.2,1.9-4.4,3.3c-1.1,1.4-2,3.1-2.6,4.9c-0.6,1.8-0.9,3.8-0.9,5.9c0,2.1,0.3,4.1,1,5.9c0.7,1.8,1.6,3.5,2.8,4.9
		c1.2,1.4,2.6,2.5,4.4,3.3c1.7,0.8,3.6,1.2,5.8,1.2c4.5,0,8-1.7,10.5-5.1l5.1,4.8c-2,2.3-4.4,3.9-7.1,5c-2.7,1-5.6,1.6-8.6,1.6
		c-3.1,0-6.1-0.5-8.7-1.6c-2.6-1-4.9-2.5-6.7-4.5s-3.3-4.2-4.3-6.9c-1-2.6-1.6-5.6-1.6-8.7s0.5-6,1.6-8.7s2.4-4.9,4.4-6.9
		c1.9-1.9,4.1-3.4,6.7-4.5c2.6-1,5.5-1.7,8.7-1.7c3.1,0,5.9,0.5,8.7,1.6c2.7,1,5.2,2.7,7.2,4.9L1196,664.9z"/>
	<path display="inline" fill="#72808A" d="M1204.6,675.2c0-3.2,0.5-6.2,1.7-8.8s2.6-4.9,4.5-6.8c1.9-1.9,4.3-3.4,7-4.5
		c2.7-1,5.7-1.6,8.8-1.6c3.1,0,6.1,0.5,8.8,1.6c2.7,1,5,2.5,7,4.5c1.9,1.9,3.5,4.2,4.5,6.8c1.1,2.6,1.7,5.6,1.7,8.8
		c0,3.2-0.5,6.2-1.7,8.8s-2.6,4.9-4.5,6.8c-1.9,1.9-4.3,3.4-7,4.5c-2.7,1-5.7,1.6-8.8,1.6c-3.1,0-6.1-0.5-8.8-1.6
		c-2.7-1-5-2.5-7-4.5c-1.9-1.9-3.5-4.2-4.5-6.8C1205.1,681.4,1204.6,678.4,1204.6,675.2z M1211.9,675.2c0,2.2,0.3,4.2,1,6
		c0.7,1.8,1.7,3.5,3,4.8c1.3,1.4,2.8,2.4,4.6,3.2c1.7,0.8,3.8,1.2,6,1.2c2.3,0,4.3-0.4,6-1.2c1.7-0.8,3.3-1.9,4.6-3.2
		c1.3-1.4,2.3-3,3-4.8s1-3.8,1-6s-0.3-4.2-1-6c-0.7-1.8-1.7-3.5-3-4.8c-1.3-1.4-2.8-2.4-4.6-3.2c-1.8-0.8-3.8-1.2-6-1.2
		c-2.3,0-4.3,0.4-6,1.2c-1.8,0.8-3.3,1.9-4.6,3.2c-1.3,1.4-2.3,3-3,4.8C1212.3,671,1211.9,673,1211.9,675.2z"/>
	<path display="inline" fill="#72808A" d="M1257.1,664.3c0-1.9-0.1-3.7-0.2-5.2c-0.1-1.7-0.2-3.1-0.2-4.5h6.6c0,1.1,0,2.3,0.1,3.3
		c0.1,1.1,0.1,2.3,0.1,3.4h0.2c0.4-1,1.1-2,2-2.9c0.9-1,1.8-1.7,3.1-2.5c1.1-0.7,2.5-1.3,3.9-1.7c1.5-0.4,3.1-0.7,4.7-0.7
		c2.3,0,4.1,0.3,5.6,0.9c1.5,0.5,2.7,1.2,3.8,2c1,0.8,1.7,1.7,2.4,2.5c0.5,0.9,1,1.7,1.4,2.4c1.5-2.4,3.3-4.4,5.2-5.8
		c2-1.4,4.5-2.1,7.8-2.1c3,0,5.4,0.4,7.4,1.2s3.6,1.9,4.8,3.4c1.2,1.5,2.1,3.3,2.6,5.5s0.8,4.5,0.8,7.2v25h-6.9v-24.7
		c0-1.4-0.2-2.8-0.4-4.1c-0.3-1.3-0.8-2.5-1.6-3.6c-0.8-1-1.8-1.9-3.1-2.5c-1.3-0.6-3-1-4.9-1c-1.5,0-2.9,0.3-4.1,0.9
		c-1.3,0.6-2.4,1.4-3.4,2.4s-1.7,2.4-2.3,3.8c-0.5,1.5-0.9,3.1-0.9,5v23.8h-6.9v-23.3c0-4.5-0.6-7.9-1.8-9.7
		c-1.2-1.9-3.2-2.9-6.1-2.9c-2.3,0-4.2,0.3-5.8,1.1c-1.6,0.8-3,1.8-3.9,3.2c-1,1.4-1.8,3.1-2.3,5c-0.5,1.9-0.8,4.1-0.8,6.5v20.1
		h-6.9L1257.1,664.3L1257.1,664.3z"/>
</g>
<g display="none">
	<path display="inline" fill="#72808A" d="M957.8,775.2c-1.5-1.7-3.1-3.1-4.7-3.8c-1.7-0.8-3.6-1.2-5.7-1.2c-2.3,0-4.3,0.4-6.1,1.2
		c-1.7,0.8-3.2,1.9-4.4,3.3s-2,3.1-2.6,4.9c-0.6,1.8-0.9,3.8-0.9,5.9s0.3,4.1,1,5.9c0.7,1.8,1.6,3.5,2.8,4.9
		c1.2,1.4,2.6,2.5,4.4,3.3c1.7,0.8,3.6,1.2,5.8,1.2c4.5,0,8-1.7,10.5-5.1l5.1,4.8c-2,2.3-4.4,3.9-7.1,5c-2.7,1-5.6,1.6-8.6,1.6
		c-3.1,0-6.1-0.5-8.7-1.6c-2.6-1-4.9-2.5-6.7-4.5c-1.8-1.9-3.3-4.2-4.3-6.9c-1-2.6-1.6-5.6-1.6-8.7s0.5-6,1.6-8.7
		c1-2.6,2.4-4.9,4.4-6.9c1.9-1.9,4.1-3.4,6.7-4.5c2.6-1,5.5-1.7,8.7-1.7c3.1,0,5.9,0.5,8.7,1.6s5.2,2.7,7.2,4.9L957.8,775.2z"/>
	<path display="inline" fill="#72808A" d="M968.7,739.4h6.9v31.1h0.2c0.4-0.8,1.1-1.7,1.9-2.4c0.8-0.8,1.8-1.5,3-2.2
		c1.1-0.6,2.4-1.1,3.8-1.6c1.4-0.4,2.9-0.6,4.5-0.6c2.7,0,5.1,0.4,7,1.2c2,0.8,3.6,2,4.9,3.4c1.3,1.5,2.3,3.2,2.9,5.3
		c0.6,2.1,1,4.4,1,6.8V806h-6.9v-24.7c0-3.5-0.8-6.2-2.3-8.2c-1.5-2-3.9-3-7.2-3c-2.3,0-4.2,0.3-5.8,1.1c-1.6,0.8-3,1.8-3.9,3.2
		c-1,1.4-1.8,3.1-2.3,5c-0.5,1.9-0.8,4.1-0.8,6.5V806h-6.9V739.4z"/>
	<path display="inline" fill="#72808A" d="M1014.9,770.1c2.1-2.2,4.6-3.8,7.5-4.8c2.9-1,5.9-1.6,8.8-1.6c6.1,0,10.5,1.4,13.2,4.3
		c2.7,2.9,4,7.3,4,13.1v17.7c0,1.1,0.1,2.4,0.2,3.7c0.1,1.2,0.3,2.4,0.4,3.5h-6.6c-0.3-1-0.3-2-0.4-3.1c0-1.1,0-2.2,0-3.1h-0.2
		c-1.3,2.1-3.1,3.8-5.4,5.2c-2.3,1.3-5,2-8.1,2c-2.1,0-4.1-0.3-5.9-0.8c-1.8-0.5-3.5-1.3-4.8-2.4c-1.4-1-2.4-2.3-3.3-3.8
		c-0.8-1.5-1.2-3.3-1.2-5.2c0-3.4,0.9-6.1,2.6-8c1.7-1.9,3.9-3.4,6.6-4.3c2.6-1,5.4-1.5,8.5-1.7c3.1-0.3,5.8-0.3,8.3-0.3h2.6v-1.2
		c0-3-0.9-5.2-2.7-6.8c-1.8-1.5-4.3-2.3-7.5-2.3c-2.3,0-4.5,0.3-6.6,1.1c-2.2,0.7-4,1.8-5.7,3.4L1014.9,770.1z M1034.9,786.3
		c-4.4,0-7.9,0.6-10.5,1.8c-2.6,1.2-3.8,3.2-3.8,6.1c0,2.6,0.9,4.5,2.6,5.5c1.7,1,3.9,1.7,6.5,1.7c2,0,3.8-0.3,5.2-1
		c1.5-0.7,2.7-1.6,3.8-2.7c1-1.1,1.7-2.4,2.3-3.9c0.5-1.5,0.8-3.1,0.9-4.8v-2.6H1034.9z"/>
	<path display="inline" fill="#72808A" d="M1081.6,770.6h-12.2v20.6c0,1.3,0,2.6,0.1,3.8c0.1,1.1,0.3,2.2,0.7,3c0.4,0.9,1,1.5,1.8,2
		c0.8,0.5,2,0.8,3.5,0.8c1,0,2-0.1,3.1-0.3c1-0.3,2.1-0.6,3-1l0.3,6.3c-1.1,0.5-2.4,0.9-3.9,1.1c-1.4,0.3-2.8,0.3-4.1,0.3
		c-2.4,0-4.5-0.3-5.9-1c-1.5-0.6-2.6-1.6-3.4-2.7c-0.8-1.1-1.4-2.6-1.7-4.4s-0.4-3.7-0.4-5.8v-22.6h-9v-5.9h9v-11.7h6.9v11.7h12.2
		v5.8H1081.6z"/>
	<path display="inline" fill="#72808A" d="M1112.2,770.6h-12.2v20.6c0,1.3,0,2.6,0.1,3.8c0.1,1.1,0.3,2.2,0.7,3c0.4,0.9,1,1.5,1.8,2
		c0.8,0.5,2,0.8,3.5,0.8c1,0,2-0.1,3.1-0.3c1-0.3,2.1-0.6,3-1l0.3,6.3c-1.1,0.5-2.4,0.9-3.9,1.1c-1.4,0.3-2.8,0.3-4.1,0.3
		c-2.4,0-4.5-0.3-5.9-1c-1.5-0.6-2.6-1.6-3.4-2.7c-0.8-1.1-1.4-2.6-1.7-4.4s-0.4-3.7-0.4-5.8v-22.6h-9v-5.9h9v-11.7h6.9v11.7h12.2
		v5.8H1112.2z"/>
	<path display="inline" fill="#72808A" d="M1155.3,798.6c-2.4,3.1-5.2,5.4-8.1,6.6c-3,1.2-6.4,1.9-10.2,1.9c-3.2,0-6.1-0.6-8.7-1.7
		c-2.6-1.1-4.8-2.7-6.6-4.6c-1.7-1.9-3.1-4.2-4.1-6.9c-1-2.6-1.5-5.5-1.5-8.5c0-3.1,0.5-6.1,1.6-8.7c1-2.7,2.5-5,4.4-6.9
		c1.9-1.9,4.1-3.4,6.7-4.5c2.6-1,5.4-1.6,8.5-1.6c2.9,0,5.5,0.5,8,1.5c2.4,1,4.5,2.4,6.2,4.2s3.1,4.1,4,6.8c1,2.7,1.4,5.7,1.4,9.1
		v2.2h-33.3c0.1,1.7,0.5,3.4,1.3,5.1c0.7,1.6,1.7,3.1,2.9,4.2c1.1,1.2,2.5,2.2,4.1,2.9c1.6,0.7,3.3,1,5.2,1c3,0,5.5-0.5,7.6-1.6
		c2.1-1,3.9-2.6,5.6-4.6L1155.3,798.6z M1149.5,781.7c-0.1-3.5-1.2-6.4-3.4-8.5c-2.2-2.1-5.2-3.1-9-3.1c-3.8,0-6.9,1-9.3,3.1
		c-2.4,2.1-3.8,4.9-4.2,8.5H1149.5z"/>
	<path display="inline" fill="#72808A" d="M1165.3,774.7c0-1.9-0.1-3.7-0.2-5.2c-0.1-1.7-0.2-3.1-0.2-4.5h6.6c0,1.1,0,2.3,0.1,3.3
		c0.1,1.1,0.1,2.3,0.1,3.4h0.2c0.4-1,1.1-2,2-2.9c0.9-1,1.8-1.7,3.1-2.5c1.1-0.7,2.5-1.3,3.9-1.7c1.5-0.4,3.1-0.7,4.7-0.7
		c0.4,0,1,0,1.4,0.1s1,0.2,1.4,0.3l-0.4,7c-1.1-0.3-2.4-0.5-3.7-0.5c-4.2,0-7.3,1.4-9.2,4.1c-1.9,2.7-2.9,6.5-2.9,11.3v20.1h-6.9
		V774.7z"/>
</g>
</svg>
